<svg xmlns="http://www.w3.org/2000/svg" viewBox="0 0 98.32 135.27"><defs><style>.cls-1{fill:#6d6e70;}</style></defs><title>Cobertura</title><g id="Capa_2" data-name="Capa 2"><g id="Layer_1" data-name="Layer 1"><path class="cls-1" d="M49.16,135.27a2.49,2.49,0,0,1-1.76-.73C45.46,132.62,0,87,0,49.16a49.16,49.16,0,1,1,98.32,0c0,38.89-45.48,83.52-47.42,85.4A2.49,2.49,0,0,1,49.16,135.27ZM49.16,5A44.21,44.21,0,0,0,5,49.16c0,31.72,35.78,71.21,44.18,80,8.42-8.69,44.14-47.44,44.14-80A44.21,44.21,0,0,0,49.16,5Z"/><path class="cls-1" d="M49.16,72.34A24.37,24.37,0,1,1,73.52,48,24.39,24.39,0,0,1,49.16,72.34Zm0-43.73A19.37,19.37,0,1,0,68.52,48,19.39,19.39,0,0,0,49.16,28.61Z"/></g></g></svg>