<svg xmlns="http://www.w3.org/2000/svg" viewBox="0 0 96.52 148.61"><defs><style>.cls-1{fill:#6d6e70;}</style></defs><title>Mi cuenta</title><g id="Capa_2" data-name="Capa 2"><g id="Layer_1" data-name="Layer 1"><path class="cls-1" d="M50.73,148.61h0c-.81,0-1.64,0-2.46,0s-1.65,0-2.47,0c-5.74,0-19.67-.65-25-6.64C8.41,127.88.45,103.67.12,102.64a2.5,2.5,0,0,1,1.11-2.93,99.83,99.83,0,0,1,94.05,0,2.5,2.5,0,0,1,1.11,2.93c-.33,1-8.28,25.23-20.71,39.32C70.4,148,56.47,148.61,50.73,148.61Zm-2.47-5h.07c.81,0,1.61,0,2.4,0,10.39,0,18.52-1.9,21.21-5,9.76-11.07,16.86-29.55,19-35.59a98.48,98.48,0,0,0-42.7-10.12,98.5,98.5,0,0,0-42.7,10.12c2.16,6,9.26,24.52,19,35.59,2.69,3.05,10.82,5,21.21,5,.79,0,1.59,0,2.4,0Z"/><path class="cls-1" d="M45.78,80.32A40.16,40.16,0,1,1,85.95,40.16,40.21,40.21,0,0,1,45.78,80.32ZM45.78,5A35.16,35.16,0,1,0,80.95,40.16,35.2,35.2,0,0,0,45.78,5Z"/></g></g></svg>