<svg xmlns="http://www.w3.org/2000/svg" viewBox="0 0 189.32 140.85"><defs><style>.cls-1{fill:#6d6e70;}</style></defs><title>Pagos</title><g id="Capa_2" data-name="Capa 2"><g id="Layer_1" data-name="Layer 1"><path class="cls-1" d="M65.28,140.85A2.5,2.5,0,0,1,62.86,139L44.29,66.46a2.5,2.5,0,0,1,1.8-3l93.06-23.84a2.5,2.5,0,0,1,1.89.27L176.81,61A2.5,2.5,0,0,1,178,62.56l11.28,44a2.5,2.5,0,0,1-1.8,3L65.9,140.77A2.54,2.54,0,0,1,65.28,140.85ZM49.75,67.64l17.33,67.66,116.69-29.89-10.4-40.61-34-20.13Z"/><path class="cls-1" d="M147.06,73a2.5,2.5,0,0,1-2.42-1.88l-7.29-28.48a2.5,2.5,0,0,1,3.7-2.77L176.81,61a2.5,2.5,0,0,1-.65,4.57l-28.48,7.3A2.54,2.54,0,0,1,147.06,73Zm-3.37-25.75,5.18,20.21,20.21-5.18Z"/><path class="cls-1" d="M73.82,126a2.5,2.5,0,0,1-2.42-1.88L58.94,75.42a2.5,2.5,0,0,1,1.8-3L142.2,51.51a2.5,2.5,0,0,1,1.24,4.84L64.4,76.6l11.22,43.81,93.5-24-4.84-18.89a2.5,2.5,0,0,1,4.84-1.24l5.46,21.32a2.5,2.5,0,0,1-1.8,3L74.44,125.87A2.54,2.54,0,0,1,73.82,126Z"/><path class="cls-1" d="M113.43,101.62h0c-5,0-9.68-4.66-11.38-11.32a17.46,17.46,0,0,1,.2-9.89c1.12-3.24,3.35-5.5,6.12-6.21a7.63,7.63,0,0,1,1.9-.24c5,0,9.68,4.66,11.38,11.32a17.45,17.45,0,0,1-.2,9.89,9.13,9.13,0,0,1-6.12,6.21A7.67,7.67,0,0,1,113.43,101.62ZM110.27,79a2.62,2.62,0,0,0-.66.08c-1.53.39-2.31,2.05-2.64,3a12.6,12.6,0,0,0-.08,7c1.21,4.73,4.28,7.56,6.54,7.56h0a2.67,2.67,0,0,0,.66-.08c1.53-.39,2.31-2.05,2.64-3a12.59,12.59,0,0,0,.08-7C115.6,81.78,112.53,79,110.27,79Z"/><path class="cls-1" d="M136.39,95.74h0c-4.92,0-9.71-4.76-11.38-11.32-2-7.62.82-14.7,6.32-16.11a7.69,7.69,0,0,1,1.9-.24c5,0,9.68,4.66,11.39,11.32,2,7.62-.83,14.7-6.32,16.11A7.67,7.67,0,0,1,136.39,95.74Zm-3.16-22.67a2.67,2.67,0,0,0-.66.08c-2.34.6-4,4.87-2.72,10,1.21,4.73,4.28,7.56,6.54,7.56h0a2.66,2.66,0,0,0,.66-.08c2.35-.6,4-4.87,2.72-10C138.56,75.9,135.49,73.07,133.23,73.07Z"/><path class="cls-1" d="M99.13,105.09a2.5,2.5,0,0,1-2.42-1.88L92.49,86.75l-.81,1.14A2.5,2.5,0,0,1,87.6,85l3.93-5.56a2.5,2.5,0,0,1,4.46.82l5.56,21.7a2.5,2.5,0,0,1-1.8,3A2.53,2.53,0,0,1,99.13,105.09Z"/><path class="cls-1" d="M48.09,125a2.49,2.49,0,0,1-1.27-.35l-45.6-27A2.5,2.5,0,0,1,.35,94.2L49.29,11.54a2.5,2.5,0,0,1,1.53-1.15L91.1.08A2.5,2.5,0,0,1,93,.35L132.1,23.51a2.5,2.5,0,0,1,.88,3.42l-13,22a2.5,2.5,0,1,1-4.3-2.55L127.4,26.54,91.33,5.18,53.07,15,5.93,94.6l43.45,25.73A2.5,2.5,0,0,1,48.09,125Z"/><path class="cls-1" d="M76.74,30.3a2.5,2.5,0,0,1-1.27-.35L50.17,15a2.5,2.5,0,0,1,.65-4.57L91.1.08a2.5,2.5,0,0,1,2.77,3.7l-15,25.3a2.5,2.5,0,0,1-1.53,1.15A2.54,2.54,0,0,1,76.74,30.3ZM57.91,13.74l18,10.63,10.63-18Z"/><path class="cls-1" d="M59.36,117.74a2.49,2.49,0,0,1-1.27-.35L17.92,93.6A2.5,2.5,0,0,1,17,90.18L59.89,17.82a2.5,2.5,0,0,1,4.3,2.55L22.62,90.57l38,22.51a2.5,2.5,0,0,1-1.28,4.65Z"/><path class="cls-1" d="M108.53,41.65a2.5,2.5,0,0,1-2.15-3.77l4.33-7.32L93.93,20.62a2.5,2.5,0,1,1,2.55-4.3l18.93,11.21a2.5,2.5,0,0,1,.88,3.42l-5.61,9.47A2.5,2.5,0,0,1,108.53,41.65Z"/></g></g></svg>